<svg xmlns="http://www.w3.org/2000/svg" xmlns:xlink="http://www.w3.org/1999/xlink" width="500" zoomAndPan="magnify" viewBox="0 0 375 374.999991" height="500" preserveAspectRatio="xMidYMid meet" version="1.0"><defs><clipPath id="8ba3242d0d"><path d="M 11.613281 11.613281 L 235 11.613281 L 235 286 L 11.613281 286 Z M 11.613281 11.613281 " clip-rule="nonzero"/></clipPath><clipPath id="ce061987dd"><path d="M 140 89 L 363.363281 89 L 363.363281 363.363281 L 140 363.363281 Z M 140 89 " clip-rule="nonzero"/></clipPath></defs><rect x="-37.5" width="450" fill="#ffffff" y="-37.499999" height="449.999989" fill-opacity="1"/><rect x="-37.5" width="450" fill="#ffffff" y="-37.499999" height="449.999989" fill-opacity="1"/><g clip-path="url(#8ba3242d0d)"><path fill="#1cabb0" d="M 234.636719 11.613281 L 215.921875 81.367188 L 146.164062 100.082031 L 109.792969 109.828125 L 100.046875 146.199219 L 81.332031 215.957031 L 117.707031 206.214844 L 187.5 187.5 L 177.753906 223.871094 L 168.820312 257.253906 L 132.445312 267 L 99.0625 275.933594 L 62.691406 285.679688 L 11.613281 234.636719 L 30.292969 164.878906 L 58.75 58.75 L 164.878906 30.328125 Z M 234.636719 11.613281 " fill-opacity="1" fill-rule="nonzero"/></g><g clip-path="url(#ce061987dd)"><path fill="#1cabb0" d="M 312.308594 89.320312 L 363.386719 140.359375 L 344.707031 210.117188 L 316.28125 316.246094 L 246.527344 334.925781 L 210.152344 344.671875 L 176.769531 353.605469 L 140.359375 363.386719 L 159.039062 293.628906 L 195.378906 283.882812 L 265.136719 265.207031 L 274.878906 228.832031 L 293.59375 159.074219 L 223.835938 177.753906 L 187.5 187.5 L 206.179688 117.742188 L 242.550781 107.996094 Z M 312.308594 89.320312 " fill-opacity="1" fill-rule="nonzero"/></g></svg>